0
SECTION
2
HEADER
9
$INSUNITS
70
4
9
$ACADVER
1
AC1014
9
$HANDSEED
5
FFFF
0
ENDSEC
0
SECTION
2
TABLES
0
TABLE
2
VPORT
5
8
100
AcDbSymbolTable
0
ENDTAB
0
TABLE
2
LTYPE
5
5
100
AcDbSymbolTable
0
LTYPE
5
14
100
AcDbSymbolTableRecord
100
AcDbLinetypeTableRecord
2
BYBLOCK
70
0
0
LTYPE
5
15
100
AcDbSymbolTableRecord
100
AcDbLinetypeTableRecord
2
BYLAYER
70
0
0
ENDTAB
0
TABLE
2
LAYER
5
2
100
AcDbSymbolTable
70
2
0
LAYER
5
50
100
AcDbSymbolTableRecord
100
AcDbLayerTableRecord
2
0
70
0
6
CONTINUOUS
0
ENDTAB
0
TABLE
2
STYLE
5
3
100
AcDbSymbolTable
70
1
0
STYLE
5
11
100
AcDbSymbolTableRecord
100
AcDbTextStyleTableRecord
2
STANDARD
70
0
0
ENDTAB
0
TABLE
2
VIEW
5
6
100
AcDbSymbolTable
70
0
0
ENDTAB
0
TABLE
2
UCS
5
7
100
AcDbSymbolTable
70
0
0
ENDTAB
0
TABLE
2
APPID
5
9
100
AcDbSymbolTable
70
2
0
APPID
5
12
100
AcDbSymbolTableRecord
100
AcDbRegAppTableRecord
2
ACAD
70
0
0
ENDTAB
0
TABLE
2
DIMSTYLE
5
A
100
AcDbSymbolTable
70
1
0
ENDTAB
0
TABLE
2
BLOCK_RECORD
5
1
100
AcDbSymbolTable
70
1
0
BLOCK_RECORD
5
1F
100
AcDbSymbolTableRecord
100
AcDbBlockTableRecord
2
*MODEL_SPACE
0
BLOCK_RECORD
5
1B
100
AcDbSymbolTableRecord
100
AcDbBlockTableRecord
2
*PAPER_SPACE
0
ENDTAB
0
ENDSEC
0
SECTION
2
BLOCKS
0
BLOCK
5
20
100
AcDbEntity
100
AcDbBlockBegin
2
*MODEL_SPACE
0
ENDBLK
5
21
100
AcDbEntity
100
AcDbBlockEnd
0
BLOCK
5
1C
100
AcDbEntity
100
AcDbBlockBegin
2
*PAPER_SPACE
0
ENDBLK
5
1D
100
AcDbEntity
100
AcDbBlockEnd
0
ENDSEC
0
SECTION
2
ENTITIES
0
CIRCLE
5
100
100
AcDbEntity
8
0
100
AcDbCircle
10
-203.44968195082242
20
-80.488247596545207
30
0
40
0.99999999999999978
210
0
220
0
230
1
0
LINE
5
101
100
AcDbEntity
8
0
100
AcDbLine
10
-194.57196394207628
20
-86.488247596545193
30
0
11
-194.56513258761055
21
-86.488247596545193
31
0
0
LINE
5
102
100
AcDbEntity
8
0
100
AcDbLine
10
-194.57196394207628
20
-86.488247596545193
30
0
11
-194.57879529654201
21
-86.488247596545193
31
0
0
LINE
5
103
100
AcDbEntity
8
0
100
AcDbLine
10
-201.87513258761274
20
-83.488247596545193
30
0
11
-194.57196394207628
21
-83.488247596545207
31
0
0
LINE
5
104
100
AcDbEntity
8
0
100
AcDbLine
10
-194.57196394207628
20
-86.488247596545193
30
0
11
-194.57879529654201
21
-86.488247596545193
31
0
0
LINE
5
105
100
AcDbEntity
8
0
100
AcDbLine
10
-201.87513258760816
20
-33.288247596543698
30
0
11
-201.87513258760578
21
-6.3978734250197196
31
0
0
CIRCLE
5
106
100
AcDbEntity
8
0
100
AcDbCircle
10
-185.69424593333019
20
-80.488247596545222
30
0
40
0.99999999999999978
210
0
220
0
230
1
0
CIRCLE
5
107
100
AcDbEntity
8
0
100
AcDbCircle
10
-185.69424593333019
20
-80.488247596545222
30
0
40
0.99999999999999978
210
0
220
0
230
1
0
CIRCLE
5
108
100
AcDbEntity
8
0
100
AcDbCircle
10
-185.69424593333014
20
-9.3978734250197178
30
0
40
0.99999999999999978
210
0
220
0
230
1
0
LINE
5
109
100
AcDbEntity
8
0
100
AcDbLine
10
-187.26879529654437
20
-33.288247596543698
30
0
11
-187.26879529654673
21
-6.3978734250197249
31
0
0
LINE
5
110
100
AcDbEntity
8
0
100
AcDbLine
10
-194.57196394207628
20
-86.488247596545193
30
0
11
-194.56513258761055
21
-86.488247596545193
31
0
0
CIRCLE
5
111
100
AcDbEntity
8
0
100
AcDbCircle
10
-203.44968195082242
20
-80.488247596545207
30
0
40
0.99999999999999978
210
0
220
0
230
1
0
CIRCLE
5
112
100
AcDbEntity
8
0
100
AcDbCircle
10
-185.69424593333019
20
-44.897873425019625
30
0
40
0.99999999999999978
210
0
220
0
230
1
0
CIRCLE
5
113
100
AcDbEntity
8
0
100
AcDbCircle
10
-203.44968195082237
20
-9.3978734250197142
30
0
40
0.99999999999999978
210
0
220
0
230
1
0
CIRCLE
5
114
100
AcDbEntity
8
0
100
AcDbCircle
10
-203.44968195082242
20
-44.897873425019625
30
0
40
0.99999999999999978
210
0
220
0
230
1
0
LINE
5
115
100
AcDbEntity
8
0
100
AcDbLine
10
-187.26879529654437
20
-33.288247596543698
30
0
11
-187.26879529653985
21
-83.488247596545207
31
0
0
LINE
5
116
100
AcDbEntity
8
0
100
AcDbLine
10
-187.26879529654437
20
-33.288247596543698
30
0
11
-187.26879529654673
21
-6.3978734250197249
31
0
0
LINE
5
117
100
AcDbEntity
8
0
100
AcDbLine
10
-201.87513258760578
20
-6.3978734250197196
30
0
11
-187.26879529654673
21
-6.3978734250197249
31
0
0
LINE
5
118
100
AcDbEntity
8
0
100
AcDbLine
10
-201.87513258760578
20
-6.3978734250197196
30
0
11
-187.26879529654673
21
-6.3978734250197249
31
0
0
CIRCLE
5
119
100
AcDbEntity
8
0
100
AcDbCircle
10
-203.44968195082237
20
-9.3978734250197142
30
0
40
0.99999999999999978
210
0
220
0
230
1
0
CIRCLE
5
120
100
AcDbEntity
8
0
100
AcDbCircle
10
-203.44968195082242
20
-44.897873425019625
30
0
40
0.99999999999999978
210
0
220
0
230
1
0
LINE
5
121
100
AcDbEntity
8
0
100
AcDbLine
10
-187.26879529653985
20
-83.488247596545207
30
0
11
-194.57196394207628
21
-83.488247596545207
31
0
0
LINE
5
122
100
AcDbEntity
8
0
100
AcDbLine
10
-187.26879529653985
20
-83.488247596545207
30
0
11
-194.57196394207628
21
-83.488247596545207
31
0
0
LINE
5
123
100
AcDbEntity
8
0
100
AcDbLine
10
-201.87513258760816
20
-33.288247596543698
30
0
11
-201.87513258760578
21
-6.3978734250197196
31
0
0
LINE
5
124
100
AcDbEntity
8
0
100
AcDbLine
10
-201.87513258760816
20
-33.288247596543698
30
0
11
-201.87513258761274
21
-83.488247596545193
31
0
0
CIRCLE
5
125
100
AcDbEntity
8
0
100
AcDbCircle
10
-185.69424593333019
20
-44.897873425019625
30
0
40
0.99999999999999978
210
0
220
0
230
1
0
LINE
5
126
100
AcDbEntity
8
0
100
AcDbLine
10
-187.26879529654437
20
-33.288247596543698
30
0
11
-187.26879529653985
21
-83.488247596545207
31
0
0
CIRCLE
5
127
100
AcDbEntity
8
0
100
AcDbCircle
10
-185.69424593333014
20
-9.3978734250197178
30
0
40
0.99999999999999978
210
0
220
0
230
1
0
LINE
5
128
100
AcDbEntity
8
0
100
AcDbLine
10
-201.87513258760816
20
-33.288247596543698
30
0
11
-201.87513258761274
21
-83.488247596545193
31
0
0
LWPOLYLINE
5
129
100
AcDbEntity
8
0
100
AcDbPolyline
90
5
70
1
43
0.0
10
-184.07196394207631
20
-85.488247596545207
10
-194.57196394207628
20
-85.488247596545207
10
-205.07196394207628
20
-85.488247596545193
10
-205.07196394207625
20
-4.3978734250197249
10
-184.07196394207628
20
-4.3978734250197249
0
LWPOLYLINE
5
130
100
AcDbEntity
8
0
100
AcDbPolyline
90
6
70
1
43
0.0
10
-243.58936662486045
20
-4.3832068094089944
10
-222.75047692812075
20
-4.4365165683456986
10
-222.90942418787961
20
-66.569313260339086
10
-233.40942418787955
20
-66.569313260339953
10
-243.90942418787949
20
-66.569313260339086
10
-243.90942418787429
20
-4.3832068094089944
0
LWPOLYLINE
5
131
100
AcDbEntity
8
0
100
AcDbPolyline
90
4
70
1
43
0.0
10
-226.04685435660502
20
-6.429208002937818
10
-240.65317640083458
20
-6.414284864340507
10
-240.71259283340783
20
-64.569313260339968
10
-226.10625554235128
20
-64.569313260339968
0
CIRCLE
5
132
100
AcDbEntity
8
0
100
AcDbCircle
10
-242.23383736586899
20
-9.3961380621528363
30
0
40
0.99999999999999978
210
0
220
0
230
1
0
CIRCLE
5
133
100
AcDbEntity
8
0
100
AcDbCircle
10
-224.47843841640503
20
-9.4324191403266227
30
0
40
0.99999999999999978
210
0
220
0
230
1
0
CIRCLE
5
134
100
AcDbEntity
8
0
100
AcDbCircle
10
-224.53170617913344
20
-61.569313260339982
30
0
40
0.99999999999999978
210
0
220
0
230
1
0
CIRCLE
5
135
100
AcDbEntity
8
0
100
AcDbCircle
10
-242.28714219662567
20
-61.569313260339982
30
0
40
0.99999999999999978
210
0
220
0
230
1
0
CIRCLE
5
136
100
AcDbEntity
8
0
100
AcDbCircle
10
-224.53170617913344
20
-35.489313260340083
30
0
40
0.99999999999999978
210
0
220
0
230
1
0
CIRCLE
5
137
100
AcDbEntity
8
0
100
AcDbCircle
10
-242.28714219662567
20
-35.489313260340083
30
0
40
0.99999999999999978
210
0
220
0
230
1
0
ENDSEC
0
SECTION
2
OBJECTS
0
DICTIONARY
5
C
100
AcDbDictionary
3
ACAD_GROUP
350
D
3
ACAD_MLINESTYLE
350
17
0
DICTIONARY
5
D
100
AcDbDictionary
0
DICTIONARY
5
1A
330
C
100
AcDbDictionary
0
DICTIONARY
5
17
100
AcDbDictionary
0
ENDSEC
0
EOF
